<?xml version="1.0" standalone="no"?>
<!DOCTYPE svg PUBLIC "-//W3C//DTD SVG 20010904//EN"
 "http://www.w3.org/TR/2001/REC-SVG-20010904/DTD/svg10.dtd">
<svg version="1.0" xmlns="http://www.w3.org/2000/svg"
 width="886.000000pt" height="380.000000pt" viewBox="0 0 886.000000 380.000000"
 preserveAspectRatio="xMidYMid meet">

<g transform="translate(0.000000,380.000000) scale(0.100000,-0.100000)"
fill="#000000" stroke="none">
<path d="M8599 3737 c-28 -25 -74 -62 -194 -157 -228 -182 -265 -213 -265
-221 0 -5 16 -9 36 -9 19 0 66 -5 104 -11 l69 -12 -15 -26 c-8 -14 -32 -51
-55 -81 -22 -30 -47 -66 -57 -80 -9 -14 -50 -67 -92 -119 -41 -51 -84 -105
-94 -120 -53 -71 -219 -247 -338 -358 -186 -173 -226 -203 -229 -173 -1 6 -2
14 -3 19 -2 18 -13 21 -44 11 -23 -6 -30 -6 -26 2 5 8 1 9 -10 5 -10 -4 -20
-7 -22 -7 -3 0 -2 -5 2 -11 4 -8 0 -9 -15 -4 -13 4 -21 2 -21 -5 0 -6 -4 -9
-9 -6 -5 4 -11 1 -13 -4 -2 -6 -25 -17 -51 -25 -26 -8 -45 -10 -42 -5 3 5 -9
5 -27 -1 -18 -5 -35 -14 -36 -19 -2 -6 -8 -8 -13 -4 -5 3 -9 0 -9 -6 0 -7 -7
-9 -16 -6 -8 3 -13 2 -10 -3 8 -12 -38 -23 -60 -14 -12 4 -15 3 -10 -5 5 -8 2
-10 -9 -6 -20 8 -72 -13 -79 -33 -3 -8 -10 -12 -14 -9 -5 3 -7 -9 -5 -27 3
-26 1 -28 -6 -12 -7 14 -9 -11 -9 -80 1 -81 2 -90 8 -50 l7 50 1 -52 c2 -57 6
-61 39 -38 24 17 73 37 73 30 0 -9 -118 -64 -124 -58 -3 4 -6 2 -6 -3 0 -11
-33 -29 -134 -73 -77 -35 -99 -40 -46 -12 l35 19 5 644 c3 353 1 648 -3 653
-5 6 -5 1 -2 -10 6 -17 3 -16 -13 5 -20 24 -21 24 -41 6 -11 -10 -25 -15 -32
-10 -7 4 -10 3 -6 -3 4 -6 -5 -15 -19 -22 -30 -13 -45 -14 -24 -1 10 7 11 10
2 10 -7 0 -15 -7 -18 -15 -4 -8 -10 -13 -14 -10 -4 3 -11 -2 -14 -11 -4 -10
-14 -14 -26 -11 -11 3 -18 2 -15 -3 3 -4 -2 -11 -11 -14 -8 -3 -13 -2 -10 3
11 17 -34 -1 -56 -24 -24 -23 -61 -45 -75 -45 -4 0 -1 5 7 10 8 5 11 10 5 10
-5 0 -22 -8 -36 -18 -74 -50 -95 -62 -104 -62 -5 0 -3 5 5 10 11 7 11 10 2 10
-7 0 -24 -11 -37 -25 l-25 -24 0 -630 c0 -591 -1 -630 -17 -635 -10 -2 -45
-10 -78 -16 -33 -7 -66 -17 -72 -22 -10 -8 -13 90 -14 483 0 272 -4 502 -8
512 -4 10 -11 19 -16 20 -6 1 -9 5 -7 10 1 4 -10 7 -24 7 -14 0 -22 -4 -19
-10 3 -6 -1 -7 -9 -4 -9 3 -16 1 -16 -6 0 -6 -4 -8 -10 -5 -5 3 -10 2 -10 -4
0 -6 -13 -17 -30 -26 -34 -17 -44 -19 -35 -5 3 6 -1 7 -9 4 -9 -3 -13 -10 -10
-15 3 -5 -1 -6 -9 -3 -8 3 -23 -3 -33 -14 -20 -20 -57 -42 -71 -42 -4 0 -1 5
7 10 8 5 10 10 4 10 -6 0 -28 -11 -48 -25 -20 -13 -36 -22 -36 -20 0 3 -9 -4
-20 -15 -11 -11 -26 -20 -32 -20 -9 0 -8 4 2 10 8 5 11 10 7 10 -14 0 -51 -21
-74 -43 -13 -11 -26 -17 -30 -14 -25 25 -28 -28 -25 -437 l2 -426 48 -1 c26
-1 -5 -6 -68 -12 -162 -13 -583 -13 -785 2 -297 21 -519 41 -560 51 -50 12
-85 13 -85 1 0 -8 49 -23 225 -67 55 -13 123 -31 150 -39 45 -13 131 -29 365
-70 41 -7 143 -18 225 -24 83 -7 183 -16 223 -21 94 -13 354 -13 440 0 37 5
126 14 197 20 140 12 229 24 285 40 19 5 73 16 120 25 47 9 112 25 145 35 33
10 89 28 125 39 76 23 200 68 285 105 146 62 457 232 520 283 6 5 26 20 45 33
43 30 36 25 150 116 186 148 438 415 563 594 9 14 42 61 72 105 30 44 59 85
65 92 5 6 19 29 31 50 12 21 29 49 39 63 9 14 24 39 32 55 27 54 99 180 106
187 4 4 27 -18 50 -50 55 -75 92 -115 98 -109 3 2 7 22 9 43 7 59 33 358 40
449 3 44 8 95 11 113 6 38 -2 40 -37 9z m-2341 -1992 c26 5 26 5 4 -5 -13 -5
-28 -8 -33 -4 -5 3 -8 263 -7 627 l3 622 2 -623 3 -622 28 5z m-245 -56 c-5
-5 -6 213 -3 484 l5 492 3 -484 c1 -267 -1 -488 -5 -492z m1457 656 c0 -5
-140 -112 -182 -139 -48 -31 -31 -9 20 26 52 36 49 34 110 83 43 34 52 40 52
30z m-255 -185 c-3 -5 -16 -15 -28 -21 -21 -10 -21 -9 2 10 25 23 36 27 26 11z
m-70 -46 c-31 -24 -78 -47 -70 -35 6 10 74 50 85 50 3 0 -4 -7 -15 -15z m-506
-248 c-9 -9 -112 -46 -116 -42 -2 2 20 13 49 25 51 19 76 26 67 17z m-159 -61
c0 -2 -18 -9 -41 -15 -22 -6 -48 -14 -57 -17 -10 -4 -14 -2 -9 3 14 15 107 41
107 29z m-510 -129 c0 -2 -30 -9 -67 -15 -38 -6 -81 -14 -98 -17 -17 -4 -26
-3 -22 2 11 12 187 40 187 30z m-253 -42 c-3 -3 -12 -4 -19 -1 -8 3 -5 6 6 6
11 1 17 -2 13 -5z m-79 -11 c-10 -2 -28 -2 -40 0 -13 2 -5 4 17 4 22 1 32 -1
23 -4z"/>
<path d="M3197 2629 c-10 -6 -28 -8 -40 -5 -11 3 -27 0 -34 -6 -7 -6 -13 -7
-13 -3 0 4 -7 2 -15 -5 -8 -7 -15 -9 -15 -6 0 4 -13 -2 -30 -14 -16 -12 -30
-18 -30 -13 0 4 -5 1 -10 -7 -5 -8 -13 -15 -17 -15 -12 -1 -78 -69 -75 -78 1
-4 -5 -10 -13 -13 -8 -3 -12 -10 -9 -15 3 -5 0 -9 -6 -9 -6 0 -8 -4 -5 -10 3
-5 2 -10 -4 -10 -6 0 -8 -7 -5 -15 4 -8 1 -15 -6 -15 -6 0 -8 -4 -5 -10 3 -5
3 -15 -1 -21 -4 -7 -7 -44 -7 -84 0 -40 3 -77 7 -84 4 -6 5 -15 1 -20 -3 -5
-1 -12 5 -16 6 -4 8 -11 5 -16 -4 -5 -1 -9 5 -9 6 0 8 -4 5 -10 -3 -5 -1 -10
5 -10 6 0 9 -4 6 -9 -3 -5 1 -12 10 -15 9 -4 14 -9 11 -13 -4 -3 5 -14 18 -25
14 -11 22 -24 19 -30 -4 -6 -2 -8 4 -4 6 3 17 -3 25 -14 7 -11 17 -17 20 -14
4 4 9 -1 13 -10 3 -9 10 -13 15 -10 5 3 9 0 9 -6 0 -6 5 -8 10 -5 6 3 10 1 10
-5 0 -6 4 -9 9 -5 5 3 12 1 16 -4 3 -6 12 -8 20 -4 8 3 15 0 15 -7 0 -7 8 -9
20 -5 12 4 27 1 35 -5 9 -8 31 -10 62 -6 27 4 60 7 76 8 15 0 27 5 27 11 0 5
7 7 15 4 8 -4 17 -2 20 4 4 5 10 7 15 4 5 -3 11 -1 15 5 4 6 11 8 16 5 5 -4 9
-1 9 5 0 6 5 8 10 5 6 -3 10 -1 10 5 0 6 5 8 10 5 6 -3 10 -1 10 4 0 6 6 10
13 9 9 -2 13 34 17 147 l5 150 -70 0 -70 0 0 -105 c0 -73 -4 -105 -12 -105 -6
0 -14 -3 -18 -7 -4 -4 -13 -4 -21 -1 -8 3 -14 1 -14 -4 0 -10 -115 -11 -126
-1 -3 4 -12 4 -20 1 -8 -3 -14 0 -14 7 0 6 -5 8 -10 5 -6 -3 -13 1 -16 9 -3 9
-9 14 -14 11 -4 -2 -18 7 -30 20 -13 14 -19 25 -14 25 5 0 2 5 -6 10 -8 5 -16
14 -16 20 -1 5 -3 12 -4 15 -1 3 -4 10 -5 15 -1 6 -4 11 -5 13 -7 7 -5 119 2
123 5 3 6 9 3 14 -3 5 -1 11 5 15 6 4 8 11 5 16 -4 5 1 12 9 15 9 3 14 9 11
14 -2 4 7 18 20 30 14 13 25 20 25 16 0 -4 7 0 16 8 8 9 20 14 25 11 5 -4 9
-1 9 5 0 7 7 10 15 7 8 -4 17 -2 20 3 9 14 105 13 105 -1 0 -6 7 -9 15 -6 8 4
17 2 20 -4 4 -5 11 -7 16 -4 5 4 9 1 9 -4 0 -6 4 -10 9 -8 4 1 17 -9 28 -22
l19 -24 40 34 c21 19 32 25 24 14 -8 -11 0 -7 18 9 22 20 29 33 22 41 -5 7 -6
16 -2 20 4 5 2 5 -5 2 -6 -4 -21 5 -33 20 -12 16 -19 21 -15 13 4 -10 2 -9 -8
2 -8 10 -17 15 -20 11 -4 -3 -7 -1 -7 6 0 7 -4 9 -10 6 -5 -3 -10 -2 -10 4 0
6 -7 8 -15 5 -8 -4 -15 -1 -15 6 0 6 -4 8 -10 5 -5 -3 -16 -3 -22 2 -7 4 -24
9 -38 10 -14 1 -38 4 -55 8 -16 3 -38 0 -48 -6z"/>
<path d="M260 2270 l0 -351 198 5 c220 6 258 8 267 18 4 4 13 4 21 1 8 -3 14
1 14 8 0 7 3 9 7 6 3 -4 15 0 25 10 10 9 18 13 18 10 0 -3 12 6 27 21 15 15
27 30 25 35 -1 4 2 7 8 7 5 0 7 7 4 15 -4 8 -2 15 3 15 12 0 8 79 -6 113 -6
16 -11 30 -11 32 0 10 -49 52 -54 47 -3 -3 -6 0 -6 7 0 7 -5 9 -11 5 -7 -4 -9
2 -7 17 2 13 9 23 16 21 8 -1 11 2 8 7 -4 5 2 16 12 23 11 7 20 16 21 21 0 4
2 10 2 15 3 20 6 28 14 46 5 12 4 26 -4 38 -6 10 -9 23 -6 28 4 6 1 10 -5 10
-6 0 -8 5 -5 10 3 6 1 10 -5 10 -6 0 -9 4 -6 9 3 4 -6 19 -21 32 -14 13 -23
17 -19 9 5 -9 2 -8 -7 2 -8 10 -17 15 -20 11 -4 -3 -7 -1 -7 6 0 7 -5 9 -10 6
-5 -3 -10 -1 -10 5 0 7 -7 10 -15 7 -8 -4 -16 -3 -19 1 -2 4 -101 9 -220 11
l-216 3 0 -352z m390 215 c0 5 8 1 18 -9 20 -17 27 -96 10 -96 -5 0 -6 -5 -2
-12 4 -6 3 -8 -3 -5 -6 4 -16 0 -23 -8 -7 -8 -16 -13 -20 -10 -5 3 -11 1 -15
-5 -3 -6 -48 -10 -103 -10 l-97 0 3 80 4 79 101 3 c56 2 108 -1 115 -6 6 -5
12 -5 12 -1z m20 -279 c0 -5 3 -7 6 -3 3 3 17 -6 30 -20 25 -27 32 -67 14 -78
-6 -4 -8 -10 -5 -15 3 -5 0 -12 -6 -16 -8 -5 -10 -2 -5 7 4 8 1 6 -8 -4 -17
-22 -42 -26 -181 -33 l-100 -6 3 92 3 91 125 -2 c72 -2 124 -7 124 -13z"/>
<path d="M1101 2380 c1 -133 6 -243 11 -246 5 -3 7 -12 4 -20 -3 -8 -1 -14 4
-14 4 0 11 -13 15 -30 4 -16 11 -30 16 -30 6 0 8 -4 5 -8 -3 -5 9 -22 26 -38
17 -16 28 -22 24 -14 -4 8 1 5 12 -7 11 -12 22 -19 26 -16 3 4 6 1 6 -5 0 -7
3 -11 8 -11 4 1 10 0 15 -1 4 -1 12 -4 17 -5 6 -1 11 -4 13 -5 2 -3 31 -8 100
-16 31 -4 53 -2 62 6 8 7 21 10 30 7 8 -4 17 -2 21 4 3 6 12 8 20 5 8 -3 14
-1 14 5 0 6 5 7 10 4 6 -3 10 -1 10 5 0 6 5 8 10 5 6 -3 10 -1 10 4 0 6 3 10
8 9 7 -2 80 68 82 78 0 2 0 9 0 15 0 5 4 7 10 4 6 -3 7 1 4 9 -3 9 -1 16 5 16
6 0 10 3 10 8 -1 4 0 9 1 12 13 32 14 70 12 303 l-2 207 -81 0 -80 0 2 -225
c1 -124 -1 -228 -4 -231 -3 -3 -3 -12 0 -20 3 -8 0 -14 -7 -14 -6 0 -9 -4 -6
-9 7 -11 -38 -53 -47 -44 -4 3 -7 1 -7 -5 0 -7 -3 -11 -7 -11 -5 1 -10 0 -13
-1 -18 -7 -110 -5 -110 2 0 5 -5 6 -10 3 -12 -7 -71 52 -75 75 -2 8 -4 17 -5
20 -5 14 -6 61 -8 253 l-2 207 -81 0 -80 0 2 -240z"/>
<path d="M1988 2271 l-3 -352 175 5 c155 4 211 8 245 16 6 1 14 2 19 1 5 -1
12 3 16 9 4 6 17 12 28 13 12 1 22 5 22 10 0 4 5 5 10 2 6 -3 10 -1 10 5 0 6
4 9 9 5 6 -3 15 4 21 15 6 11 15 18 19 16 4 -3 19 6 31 19 13 14 19 25 14 25
-5 0 2 10 16 21 14 11 18 18 10 14 -8 -4 -6 1 4 9 11 9 16 16 12 16 -5 0 -3 6
3 13 6 8 8 17 4 20 -3 4 -1 7 6 7 8 0 10 7 6 19 -3 11 -2 22 2 24 11 7 10 128
-1 145 -4 7 -5 16 -2 19 3 3 1 12 -5 20 -6 7 -8 13 -5 13 4 0 -2 14 -14 30
-12 17 -19 30 -17 30 2 0 -16 21 -42 48 -25 26 -49 46 -53 44 -4 -1 -17 7 -28
18 -11 11 -25 18 -30 15 -6 -4 -10 -1 -10 5 0 6 -4 9 -9 5 -5 -3 -12 -1 -16 5
-4 6 -11 8 -16 4 -5 -3 -15 -2 -22 3 -7 5 -101 10 -209 12 l-197 3 -3 -351z
m372 208 c0 -6 7 -9 15 -5 8 3 15 1 15 -5 0 -6 5 -7 10 -4 6 3 10 1 10 -4 0
-6 3 -10 8 -9 4 2 20 -11 37 -27 16 -17 29 -33 27 -37 -1 -5 3 -8 9 -8 5 0 8
-4 4 -9 -3 -5 -1 -12 5 -16 6 -4 8 -10 5 -15 -3 -5 -1 -11 5 -15 13 -8 13 -92
0 -100 -5 -3 -7 -12 -3 -20 3 -8 0 -15 -7 -15 -6 0 -8 -4 -5 -10 3 -5 1 -10
-4 -10 -6 0 -10 -3 -9 -7 3 -9 -70 -82 -84 -84 -18 -3 -23 -5 -33 -10 -5 -3
-56 -7 -112 -8 l-103 -3 0 211 0 210 93 4 c50 1 98 4 105 5 6 1 12 -3 12 -9z"/>
<path d="M3760 2270 l0 -350 265 0 265 0 0 65 0 65 -187 0 -188 0 0 83 0 82
160 -3 160 -3 -3 71 -4 70 -154 0 -154 0 0 75 0 75 175 0 175 0 0 60 0 60
-255 0 -255 0 0 -350z"/>
<path d="M4432 2553 l3 -68 107 -3 108 -3 2 -277 3 -277 80 -3 80 -3 -3 283
-3 283 113 -3 113 -3 -3 70 -4 71 -299 0 -300 0 3 -67z"/>
<path d="M2580 2515 c13 -14 26 -25 28 -25 3 0 -5 11 -18 25 -13 14 -26 25
-28 25 -3 0 5 -11 18 -25z"/>
<path d="M7459 1953 c-1 -4 -1 -11 0 -15 1 -11 -38 -30 -49 -23 -5 3 -15 -4
-23 -16 -17 -23 -65 -60 -53 -40 16 25 -51 -18 -68 -44 -12 -17 -24 -25 -35
-22 -22 5 -54 -11 -45 -24 3 -5 2 -9 -3 -8 -19 3 -34 -2 -29 -10 3 -4 -6 -13
-20 -20 -17 -8 -23 -8 -19 0 4 6 -6 4 -23 -5 -16 -8 -32 -22 -36 -31 -4 -11
-13 -14 -28 -10 -16 4 -19 3 -10 -3 11 -7 10 -10 -3 -16 -23 -8 -27 -8 -20 4
3 6 -1 7 -9 4 -9 -3 -14 -10 -11 -14 3 -5 -4 -6 -14 -3 -13 3 -21 -2 -26 -16
-3 -12 -11 -19 -16 -15 -6 3 -9 -159 -7 -444 2 -248 0 -448 -4 -445 -8 4 -12
-12 -9 -31 1 -5 -7 -6 -19 -3 -11 3 -18 1 -14 -4 11 -18 -63 -9 -80 10 -15 16
-16 57 -14 445 2 234 0 426 -4 426 -5 0 -8 -5 -8 -11 0 -6 -7 -8 -16 -5 -10 4
-13 2 -8 -6 5 -7 0 -9 -14 -6 -12 4 -20 3 -17 -2 3 -4 -4 -10 -15 -13 -11 -3
-18 -1 -14 4 6 11 -23 0 -53 -19 -13 -8 -23 -11 -23 -7 0 3 -7 -1 -17 -10 -11
-12 -26 -15 -47 -11 -22 4 -27 3 -16 -4 13 -8 13 -10 -2 -10 -9 0 -25 -3 -35
-6 -15 -5 -16 -4 -3 6 13 10 12 11 -3 6 -10 -3 -26 -6 -35 -6 -15 0 -15 -2 -2
-10 11 -8 8 -9 -12 -4 -18 4 -28 2 -28 -6 0 -6 -5 -8 -10 -5 -6 3 -18 -1 -27
-10 -12 -13 -27 -16 -57 -12 -28 4 -36 3 -25 -4 10 -7 6 -9 -16 -7 -17 1 -36
-1 -43 -5 -9 -6 -12 -89 -12 -356 0 -263 -3 -350 -12 -361 -10 -11 -9 -11 6 0
17 13 19 13 14 1 -3 -11 -19 -15 -54 -14 -94 1 -105 3 -129 28 l-25 24 0 313
0 313 -152 0 c-84 0 -137 -3 -118 -6 19 -3 -35 -3 -120 -1 l-155 5 3 -139 c1
-90 -1 -134 -7 -125 -8 12 -11 9 -17 -13 -5 -23 -11 -27 -38 -24 -21 2 -34 10
-41 26 -6 14 -15 20 -25 17 -8 -4 -11 -3 -8 1 4 4 -4 15 -17 26 -14 10 -24 22
-22 26 4 13 -85 112 -101 112 -8 0 -12 6 -9 14 3 8 -4 22 -16 33 -22 18 -22
18 -7 -3 8 -11 3 -7 -12 8 -16 16 -28 24 -28 18 0 -5 -8 -7 -17 -3 -10 3 -15
3 -11 -2 9 -9 -59 -65 -79 -65 -8 0 -12 -4 -8 -9 3 -6 -5 -15 -17 -22 -22 -11
-22 -11 -9 7 7 10 -2 3 -20 -16 -19 -20 -45 -45 -59 -55 -23 -19 -24 -19 -10
-1 14 18 14 18 -7 6 -12 -8 -20 -17 -18 -21 7 -10 -32 -42 -43 -35 -5 3 -16
-2 -23 -12 -12 -15 -12 -16 1 -7 9 6 2 -2 -15 -18 -16 -15 -39 -32 -50 -38
-13 -7 -11 -3 5 10 14 11 22 21 18 21 -16 0 -88 -73 -88 -89 0 -9 10 -27 21
-41 11 -14 17 -18 13 -10 -8 16 -5 14 41 -40 17 -20 21 -28 10 -20 -11 8 0 -5
25 -30 26 -25 35 -36 21 -25 -23 18 -24 18 -11 1 8 -10 32 -29 52 -42 21 -14
38 -29 38 -36 0 -6 -10 -3 -22 8 l-23 19 19 -22 c10 -13 22 -20 26 -18 9 6 32
-20 25 -27 -3 -3 5 -13 17 -24 l23 -19 -19 23 c-11 12 -14 22 -8 22 13 0 54
-55 46 -63 -3 -2 10 -15 28 -27 l33 -22 -28 26 c-15 14 -24 26 -20 26 13 0 74
-65 68 -72 -3 -3 7 -13 22 -22 l28 -17 -24 20 c-13 12 -18 21 -13 21 6 0 25
-18 43 -40 18 -22 36 -37 41 -34 5 3 26 -13 47 -35 24 -26 44 -39 53 -36 8 3
21 -2 29 -11 9 -12 10 -15 2 -10 -7 4 -13 5 -13 2 0 -3 14 -13 31 -22 18 -9
28 -11 24 -4 -4 7 7 4 24 -5 18 -9 35 -23 38 -31 3 -8 20 -22 37 -30 28 -14
29 -14 12 1 -24 18 -8 20 16 1 10 -7 14 -17 10 -21 -4 -5 -1 -5 6 -1 8 5 23
-1 37 -14 14 -13 29 -19 36 -15 7 5 10 4 6 -2 -4 -6 0 -14 9 -17 8 -3 12 -2 9
4 -8 13 -2 13 29 -1 14 -7 23 -17 19 -23 -3 -6 -2 -8 2 -3 5 4 15 1 24 -7 22
-18 84 -39 75 -25 -4 8 1 9 17 4 49 -15 67 -24 74 -35 3 -5 11 -8 16 -5 5 4 9
2 9 -4 0 -9 10 -13 63 -27 18 -4 19 -3 7 6 -12 10 -10 11 10 6 14 -3 29 -6 33
-6 5 0 6 -4 3 -9 -3 -4 6 -6 19 -3 14 2 41 -3 60 -12 19 -10 39 -14 44 -11 5
3 13 0 16 -6 5 -6 22 -9 44 -5 28 4 31 3 16 -4 -15 -7 -4 -9 40 -6 33 3 50 2
37 -2 -13 -4 98 -6 245 -5 343 2 354 2 328 13 -14 6 -6 7 23 3 30 -4 42 -2 42
7 0 7 7 10 16 6 9 -4 26 0 38 7 12 8 39 17 61 21 22 4 49 9 60 12 17 4 18 3 5
-6 -13 -10 -12 -11 3 -6 10 3 25 6 32 6 8 0 21 7 29 16 9 8 16 12 16 9 0 -4
12 0 26 10 14 9 32 14 40 11 9 -3 12 -1 9 4 -3 6 -2 10 4 10 5 0 18 3 28 6 15
5 16 4 3 -6 -23 -17 29 -2 60 18 14 9 28 15 33 14 4 -1 7 3 7 9 0 6 7 8 16 5
8 -3 13 -2 10 3 -6 10 24 25 32 16 3 -3 -1 -5 -8 -5 -7 0 -11 -3 -8 -6 8 -7
47 13 75 38 12 12 27 17 34 13 7 -5 10 -4 6 2 -4 6 5 15 19 22 18 8 23 8 18 0
-4 -8 0 -8 15 0 11 7 21 16 21 20 0 5 17 19 37 31 29 17 34 18 22 4 -13 -16
-12 -16 7 -6 12 6 29 23 38 37 11 16 23 24 32 21 9 -3 12 -1 9 4 -3 6 3 10 14
10 11 0 29 14 41 30 12 17 27 30 33 29 26 -3 37 2 37 16 0 8 6 15 13 15 16 0
90 60 83 68 -7 7 13 32 26 32 5 0 6 -6 2 -12 -4 -7 34 27 85 77 87 85 103 104
81 90 -17 -10 -11 12 7 26 15 12 16 12 8 -1 -4 -8 7 -1 25 15 18 17 40 49 50
71 10 23 24 45 30 49 7 4 5 -5 -5 -21 -16 -28 -16 -28 1 -6 9 12 17 41 18 63
1 35 -4 44 -34 67 -19 14 -29 18 -21 9 12 -15 12 -17 -3 -11 -9 3 -16 12 -16
19 0 7 -10 16 -22 19 -26 7 -58 34 -74 61 -5 10 -21 25 -35 33 -19 12 -18 9 6
-12 30 -27 30 -27 2 -10 -15 9 -37 30 -48 45 -11 16 -29 29 -39 29 -10 0 -28
13 -39 29 -11 15 -33 36 -48 45 -28 17 -28 17 2 -9 21 -19 24 -24 8 -16 -12 6
-28 19 -35 29 -14 18 -58 26 -58 10 0 -5 -5 -6 -10 -3 -6 4 -9 1 -8 -6 2 -7
-3 -13 -9 -14 -7 0 -20 -11 -30 -25 -16 -24 -16 -25 3 -10 11 8 2 -2 -20 -23
-23 -20 -40 -44 -38 -52 2 -8 -4 -15 -11 -15 -8 0 -40 -27 -70 -60 -56 -60
-84 -72 -106 -46 -9 10 -12 131 -11 444 0 283 -3 433 -10 437 -5 3 -11 3 -11
-2z m-144 -113 c-3 -5 -12 -10 -18 -10 -7 0 -6 4 3 10 19 12 23 12 15 0z
m-1085 -772 l-5 -353 -3 340 c-2 302 0 365 10 365 2 0 1 -159 -2 -352z m-974
132 c25 -30 29 -37 10 -20 -15 14 -37 39 -49 55 -24 36 -14 26 39 -35z m2454
26 c0 -2 -8 -10 -17 -17 -16 -13 -17 -12 -4 4 13 16 21 21 21 13z m-60 -69 c0
-2 -12 -14 -27 -28 l-28 -24 24 28 c23 25 31 32 31 24z m-2963 -179 c-3 -7 -5
-2 -5 12 0 14 2 19 5 13 2 -7 2 -19 0 -25z m3493 -97 c-5 -11 -15 -23 -22 -27
-7 -5 -8 -2 -3 7 21 37 44 55 25 20z m-1253 -88 c-3 -10 -5 -4 -5 12 0 17 2
24 5 18 2 -7 2 -21 0 -30z m1103 -78 c-41 -41 -77 -75 -79 -75 -3 0 28 34 69
75 41 41 77 75 79 75 3 0 -28 -34 -69 -75z m-140 -129 c0 -2 -12 -11 -27 -20
l-28 -17 24 20 c23 21 31 25 31 17z m-2650 -142 c0 -2 -9 0 -20 6 -11 6 -20
13 -20 16 0 2 9 0 20 -6 11 -6 20 -13 20 -16z m1483 -361 c-7 -2 -21 -2 -30 0
-10 3 -4 5 12 5 17 0 24 -2 18 -5z"/>
<path d="M2185 1500 c-4 -6 -15 -8 -25 -5 -10 3 -21 1 -25 -5 -3 -6 -10 -8
-15 -5 -5 3 -11 1 -15 -5 -4 -6 -11 -8 -16 -5 -5 4 -9 1 -9 -4 0 -6 -4 -10 -9
-8 -5 1 -17 -7 -26 -18 -9 -11 -13 -13 -9 -5 5 10 1 9 -14 -4 -12 -10 -19 -23
-16 -27 3 -5 -2 -12 -10 -15 -9 -3 -13 -10 -10 -15 3 -5 1 -9 -5 -9 -6 0 -8
-7 -5 -15 4 -8 2 -15 -2 -15 -8 0 -10 -94 -4 -110 1 -3 2 -8 1 -12 0 -5 4 -8
10 -8 5 0 9 -3 7 -7 -2 -5 12 -24 31 -43 19 -19 31 -28 27 -20 -4 9 -2 8 7 -2
8 -10 17 -15 20 -11 4 3 7 1 7 -5 0 -6 7 -9 15 -6 8 4 15 1 15 -5 0 -6 7 -8
15 -5 8 4 15 1 15 -6 0 -7 7 -10 15 -7 8 4 17 2 20 -4 4 -5 11 -7 16 -3 5 3
16 0 24 -6 8 -6 19 -9 24 -6 5 4 13 1 16 -5 4 -5 13 -8 21 -5 8 3 14 1 14 -5
0 -6 7 -9 15 -5 8 3 15 1 15 -5 0 -6 4 -8 9 -4 12 7 41 -34 41 -57 0 -10 -5
-18 -11 -18 -5 0 -8 -4 -5 -9 5 -8 -23 -39 -31 -33 -1 1 -4 2 -5 1 -46 -15
-167 -13 -183 3 -4 4 -13 4 -21 1 -8 -3 -14 0 -14 7 0 6 -4 8 -10 5 -5 -3 -10
-2 -10 4 0 6 -6 8 -14 5 -8 -3 -23 3 -33 13 -19 19 -49 20 -37 2 3 -5 0 -9 -6
-9 -6 0 -8 -4 -5 -10 3 -5 2 -10 -4 -10 -6 0 -7 -7 -4 -17 5 -12 3 -14 -7 -8
-10 6 -12 4 -7 -8 3 -10 2 -17 -2 -17 -5 0 -7 -9 -4 -20 3 -11 9 -17 14 -14 5
3 9 0 9 -6 0 -6 5 -8 10 -5 6 3 10 1 10 -5 0 -6 5 -8 10 -5 6 3 10 1 10 -4 0
-6 3 -10 8 -10 4 1 10 0 15 -1 4 -1 12 -4 17 -5 6 -1 11 -4 13 -5 13 -13 248
-20 264 -8 7 6 17 7 23 3 5 -3 10 -2 10 4 0 5 14 12 30 16 17 4 30 11 30 16 0
6 4 8 8 5 5 -3 22 9 38 26 16 17 22 28 14 24 -9 -5 -8 -2 2 7 10 8 15 17 11
20 -3 4 -1 7 6 7 7 0 11 7 8 15 -4 8 -2 17 3 20 12 7 13 68 3 79 -5 4 -8 11
-9 14 -2 19 -19 45 -47 75 -17 17 -27 25 -23 17 5 -9 2 -8 -7 2 -8 10 -17 15
-20 11 -4 -3 -7 -1 -7 5 0 6 -7 9 -15 6 -8 -4 -15 -1 -15 5 0 6 -7 8 -15 5 -8
-4 -15 -1 -15 6 0 7 -8 9 -20 5 -12 -4 -20 -2 -20 5 0 7 -8 9 -20 5 -12 -4
-20 -2 -20 5 0 7 -8 9 -20 5 -12 -4 -20 -2 -20 5 0 7 -7 10 -15 7 -8 -4 -17
-2 -20 4 -4 5 -11 7 -16 4 -5 -4 -9 -1 -9 5 0 6 -3 9 -7 7 -14 -7 -38 27 -38
53 0 25 27 61 49 64 6 1 16 4 21 7 17 10 109 8 122 -3 7 -5 17 -7 22 -4 5 4
12 2 16 -4 4 -6 10 -8 15 -5 5 3 11 1 15 -5 4 -6 11 -8 16 -5 5 4 9 1 9 -5 0
-6 5 -8 10 -5 6 3 10 2 10 -4 0 -6 7 -8 16 -4 8 3 13 12 10 19 -3 8 -1 14 5
14 6 0 7 5 4 10 -3 6 -1 10 5 10 7 0 10 7 6 15 -3 8 -1 15 5 15 6 0 7 5 4 10
-3 6 -1 10 4 10 6 0 11 5 11 11 0 5 -4 7 -10 4 -5 -3 -10 -1 -10 5 0 6 -4 8
-10 5 -5 -3 -10 -1 -10 5 0 6 -4 8 -10 5 -5 -3 -10 -2 -10 4 0 6 -7 8 -15 5
-8 -4 -15 -1 -15 6 0 6 -4 8 -10 5 -5 -3 -16 -3 -22 2 -28 17 -184 28 -193 13z"/>
<path d="M294 1480 c0 -11 4 -20 9 -20 5 0 7 -7 3 -15 -3 -8 -1 -15 5 -15 6 0
9 -7 5 -15 -3 -8 -1 -15 5 -15 6 0 9 -7 5 -15 -3 -8 -1 -15 5 -15 6 0 9 -6 6
-14 -3 -7 0 -19 6 -25 6 -6 7 -11 3 -11 -5 0 -3 -7 4 -15 7 -8 9 -15 5 -15 -4
0 -2 -7 5 -15 7 -8 9 -15 5 -15 -4 0 -2 -7 5 -15 7 -8 9 -15 5 -15 -4 0 -2 -7
5 -15 7 -8 9 -15 5 -15 -4 0 -2 -7 5 -15 7 -8 9 -15 5 -15 -4 0 -2 -7 5 -15 7
-8 9 -15 5 -15 -4 0 -2 -7 5 -15 7 -8 9 -15 5 -15 -4 0 -2 -7 5 -15 7 -8 9
-15 5 -15 -4 0 -2 -7 5 -15 7 -8 9 -15 5 -15 -4 0 -2 -7 5 -15 7 -8 9 -15 5
-15 -4 0 -2 -7 5 -15 7 -8 9 -15 5 -15 -4 0 -2 -7 5 -15 6 -8 9 -19 5 -25 -3
-5 -1 -10 5 -10 7 0 10 -7 6 -15 -3 -8 -1 -15 5 -15 6 0 9 -7 5 -15 -3 -8 -1
-15 5 -15 6 0 9 -7 5 -15 -3 -8 -1 -15 5 -15 5 0 9 -8 7 -17 -3 -16 8 -18 94
-21 84 -2 97 -1 92 13 -3 8 -1 15 5 15 6 0 8 7 5 15 -4 8 -1 15 5 15 6 0 8 7
5 15 -4 8 -1 15 5 15 6 0 8 7 5 15 -4 8 -1 15 5 15 6 0 8 7 5 15 -4 8 -1 15 5
15 6 0 8 7 5 15 -4 8 -1 15 5 15 6 0 8 7 5 15 -4 8 -1 15 5 15 6 0 8 7 5 15
-4 8 -1 15 5 15 6 0 8 7 5 15 -4 8 -1 15 5 15 6 0 8 7 5 15 -4 8 -1 15 5 15 6
0 8 7 5 15 -4 8 -1 15 5 15 6 0 8 7 5 15 -4 8 -1 15 5 15 6 0 8 7 5 15 -4 8
-1 15 5 15 6 0 8 7 5 15 -4 8 -1 15 5 15 6 0 8 6 5 14 -3 8 0 17 7 22 8 4 10
3 5 -4 -4 -7 -2 -12 4 -12 7 0 10 -7 6 -15 -3 -8 -1 -15 5 -15 6 0 9 -6 6 -14
-3 -7 0 -19 6 -25 6 -6 7 -11 3 -11 -5 0 -3 -7 4 -15 7 -8 9 -15 5 -15 -4 0
-2 -7 5 -15 7 -8 9 -15 5 -15 -4 0 -2 -7 5 -15 7 -8 9 -15 5 -15 -4 0 -2 -7 5
-15 7 -8 9 -15 5 -15 -4 0 -2 -7 5 -15 7 -8 9 -15 5 -15 -4 0 -2 -7 5 -15 7
-8 9 -15 5 -15 -4 0 -2 -7 5 -15 7 -8 9 -15 5 -15 -4 0 -2 -7 5 -15 7 -8 9
-15 5 -15 -4 0 -2 -7 5 -15 7 -8 9 -15 5 -15 -4 0 -2 -7 5 -15 6 -8 9 -19 5
-25 -3 -5 -1 -10 5 -10 7 0 10 -7 6 -15 -3 -8 -1 -15 5 -15 6 0 8 -3 6 -7 -3
-5 37 -7 88 -5 77 3 93 6 88 18 -3 8 0 14 6 14 6 0 8 7 5 15 -4 8 -1 15 6 15
7 0 10 7 6 15 -3 8 -1 15 5 15 6 0 9 7 5 15 -3 8 -1 15 5 15 6 0 9 7 5 15 -3
8 -1 15 5 15 6 0 9 7 5 15 -3 8 -1 15 5 15 6 0 9 7 5 15 -3 8 -1 15 5 15 6 0
9 7 5 15 -3 8 -1 15 5 15 6 0 9 6 6 14 -3 8 -3 17 1 21 4 4 8 11 8 16 1 5 3
11 4 14 1 3 4 10 5 15 1 6 4 12 5 15 1 3 4 10 5 15 1 6 4 12 5 15 1 3 3 9 4
14 0 5 4 12 8 16 4 4 4 13 1 21 -3 8 0 14 6 14 6 0 8 7 5 15 -4 8 -1 15 5 15
6 0 8 7 5 15 -4 8 -1 15 5 15 6 0 8 7 5 15 -4 8 -1 15 5 15 6 0 8 7 5 15 -4 8
-1 15 5 15 6 0 8 7 5 15 -4 8 -1 15 5 15 6 0 8 7 5 15 -4 8 -1 15 6 15 7 0 10
7 6 15 -3 8 -1 15 5 15 6 0 9 7 5 15 -3 8 0 15 6 15 8 0 9 3 2 10 -6 6 -43 10
-85 8 -63 -3 -74 -6 -73 -20 1 -10 -3 -18 -8 -18 -6 0 -8 -7 -4 -15 3 -8 1
-15 -5 -15 -6 0 -9 -7 -5 -15 3 -8 1 -15 -5 -15 -6 0 -9 -7 -5 -15 3 -8 1 -15
-5 -15 -6 0 -9 -7 -5 -15 3 -8 1 -15 -5 -15 -6 0 -9 -7 -5 -15 3 -8 1 -15 -5
-15 -6 0 -9 -7 -5 -15 3 -8 1 -15 -5 -15 -6 0 -9 -7 -5 -15 3 -8 1 -15 -5 -15
-6 0 -9 -7 -5 -15 3 -8 1 -15 -5 -15 -6 0 -9 -6 -6 -14 3 -8 3 -17 -1 -21 -4
-4 -8 -11 -8 -16 -1 -5 -3 -11 -4 -14 -1 -3 -4 -9 -5 -15 -1 -5 -4 -12 -5 -15
-1 -3 -4 -9 -5 -15 -1 -5 -4 -12 -5 -15 -1 -3 -4 -9 -5 -15 -1 -5 -4 -12 -5
-15 -1 -3 -3 -11 -4 -17 0 -7 -8 -13 -16 -13 -8 0 -16 6 -16 13 -1 6 -3 14 -4
17 -1 3 -4 10 -5 15 -1 6 -4 12 -5 15 -1 3 -4 10 -5 15 -1 6 -4 12 -5 15 -1 3
-4 10 -5 15 -1 6 -4 12 -5 15 -1 3 -3 8 -4 13 -1 4 -5 13 -9 20 -5 6 -5 17 -2
22 3 5 1 10 -5 10 -7 0 -10 7 -6 15 3 8 1 15 -5 15 -6 0 -9 6 -6 14 3 8 3 17
-1 21 -4 4 -8 11 -8 16 -1 5 -3 11 -4 14 -1 3 -4 10 -5 15 -1 6 -4 12 -5 15
-1 3 -4 10 -5 15 -1 6 -4 12 -5 15 -1 3 -4 10 -5 15 -1 6 -4 12 -5 15 -1 3 -4
10 -5 15 -1 6 -4 12 -5 15 -1 3 -4 10 -5 15 -1 6 -4 12 -5 15 -1 3 -3 11 -4
18 -1 8 -26 13 -79 15 -53 2 -77 -1 -72 -8 3 -5 2 -10 -4 -10 -6 0 -8 -7 -5
-15 4 -8 1 -15 -5 -15 -6 0 -8 -7 -5 -15 4 -8 1 -15 -5 -15 -6 0 -8 -7 -5 -15
4 -8 1 -15 -5 -15 -6 0 -8 -7 -5 -15 4 -8 1 -15 -5 -15 -6 0 -8 -7 -5 -15 4
-8 1 -15 -5 -15 -6 0 -8 -7 -5 -15 4 -8 1 -15 -5 -15 -6 0 -8 -7 -5 -15 4 -8
1 -15 -5 -15 -6 0 -8 -7 -5 -15 4 -8 1 -15 -5 -15 -6 0 -8 -7 -5 -15 4 -8 1
-15 -5 -15 -6 0 -8 -7 -5 -15 4 -8 1 -15 -5 -15 -6 0 -8 -7 -5 -15 4 -8 1 -15
-5 -15 -6 0 -8 -7 -5 -15 4 -8 1 -15 -5 -15 -6 0 -8 -7 -5 -15 4 -8 1 -15 -5
-15 -6 0 -8 -7 -5 -15 4 -8 1 -15 -5 -15 -6 0 -8 -7 -5 -15 4 -8 1 -15 -6 -15
-6 0 -8 -4 -5 -10 3 -5 1 -10 -5 -10 -7 0 -10 6 -7 14 3 7 0 19 -6 25 -6 6 -7
11 -3 11 5 0 3 7 -4 15 -7 8 -9 15 -5 15 4 0 2 7 -5 15 -7 8 -9 15 -5 15 4 0
2 7 -5 15 -7 8 -9 15 -5 15 4 0 2 7 -5 15 -7 8 -9 15 -5 15 4 0 2 7 -5 15 -7
8 -9 15 -5 15 4 0 2 7 -5 15 -6 8 -9 19 -5 25 3 5 1 10 -5 10 -7 0 -10 7 -6
15 3 8 1 15 -5 15 -6 0 -9 6 -6 14 3 8 3 17 -1 21 -4 4 -8 11 -8 16 -1 5 -3
11 -4 14 -1 3 -4 10 -5 15 -1 6 -4 12 -5 15 -1 3 -4 10 -5 15 -1 6 -4 12 -5
15 -1 3 -4 10 -5 15 -1 6 -4 12 -5 15 -1 3 -4 10 -5 15 -1 6 -4 13 -5 18 -1 4
-2 10 -1 15 0 4 -36 7 -82 7 -76 0 -83 -2 -83 -20z"/>
<path d="M1588 1156 l3 -344 79 -4 80 -3 -2 345 -3 345 -80 3 -80 3 3 -345z"/>
<path d="M2738 1155 l3 -345 259 0 260 0 0 60 0 60 -185 0 -185 0 0 80 0 80
165 0 166 0 -3 63 -3 62 -162 3 -163 2 0 76 0 75 185 -3 185 -3 0 68 0 67
-262 0 -263 0 3 -345z"/>
<path d="M6002 1378 c16 -12 18 -42 21 -328 l2 -315 0 325 c0 317 0 325 -20
328 -19 4 -19 3 -3 -10z"/>
<path d="M5873 1373 c9 -2 25 -2 35 0 9 3 1 5 -18 5 -19 0 -27 -2 -17 -5z"/>
<path d="M5034 1294 c-18 -14 -18 -15 4 -4 12 6 22 13 22 15 0 8 -5 6 -26 -11z"/>
<path d="M8099 1136 c13 -16 51 -41 51 -33 0 2 -15 14 -32 27 -21 15 -28 17
-19 6z"/>
<path d="M7480 1096 c0 -2 8 -10 18 -17 15 -13 16 -12 3 4 -13 16 -21 21 -21
13z"/>
<path d="M8252 990 c0 -14 2 -19 5 -12 2 6 2 18 0 25 -3 6 -5 1 -5 -13z"/>
<path d="M6318 63 c12 -2 30 -2 40 0 9 3 -1 5 -23 4 -22 0 -30 -2 -17 -4z"/>
<path d="M6543 63 c15 -2 37 -2 50 0 12 2 0 4 -28 4 -27 0 -38 -2 -22 -4z"/>
</g>
</svg>
